<svg width="148" height="105" viewBox="0 0 148 105" fill="none" xmlns="http://www.w3.org/2000/svg">
<g style="mix-blend-mode:hard-light" filter="url(#filter0_f_142_300)">
<path d="M88.1547 49.1132L129.198 90.1569L133.465 85.8906L89.3229 41.7488C89.3228 41.7487 89.3228 41.7487 89.3227 41.7486C88.7569 41.183 87.9896 40.8653 87.1896 40.8653C86.3895 40.8653 85.6222 41.183 85.0564 41.7486C85.0564 41.7487 85.0563 41.7487 85.0563 41.7487L66.2431 60.5619L65.278 61.527L64.3129 60.5619L26.6863 22.9353L24.3563 20.6053H27.6515H55.1485V14.5705H14.0551V55.6638H20.09V28.1668V24.8716L22.42 27.2016L63.1447 67.9263C63.7105 68.492 64.4779 68.8098 65.278 68.8098C66.0781 68.8098 66.8455 68.492 67.4113 67.9263L86.2244 49.1132L87.1896 48.1481L88.1547 49.1132Z" stroke="#FF5763" stroke-width="2.72982"/>
</g>
<g style="mix-blend-mode:hard-light" filter="url(#filter1_f_142_300)">
<path d="M84.2897 48.8163L125.036 89.563L128.709 85.8906L84.864 42.0458C84.3769 41.5588 83.7163 41.2853 83.0276 41.2853C82.3388 41.2853 81.6783 41.5588 81.1912 42.0458L62.3781 60.8588L61.116 62.1209L59.8539 60.8588L22.2274 23.2323L19.1804 20.1853H23.4895H50.5665V14.9904H10.3131V55.2438H15.508V28.1668V23.8577L18.555 26.9047L59.2796 67.6293C59.2797 67.6294 59.2798 67.6295 59.2798 67.6295C59.7669 68.1163 60.4273 68.3898 61.116 68.3898C61.8047 68.3898 62.4651 68.1163 62.9522 67.6295C62.9523 67.6295 62.9523 67.6294 62.9524 67.6293L81.7655 48.8163L83.0276 47.5542L84.2897 48.8163Z" stroke="#FF5862" stroke-width="3.56976"/>
</g>
<g style="mix-blend-mode:hard-light" filter="url(#filter2_d_142_300)">
<path d="M88.1547 49.1132L129.198 90.1569L133.465 85.8906L89.3229 41.7488C89.3228 41.7487 89.3228 41.7487 89.3227 41.7486C88.7569 41.183 87.9896 40.8653 87.1896 40.8653C86.3895 40.8653 85.6222 41.183 85.0564 41.7486C85.0564 41.7487 85.0563 41.7487 85.0563 41.7487L66.2431 60.5619L65.278 61.527L64.3129 60.5619L26.6863 22.9353L24.3563 20.6053H27.6515H55.1485V14.5705H14.0551V55.6638H20.09V28.1668V24.8716L22.42 27.2016L63.1447 67.9263C63.7105 68.492 64.4779 68.8098 65.278 68.8098C66.0781 68.8098 66.8455 68.492 67.4113 67.9263L86.2244 49.1132L87.1896 48.1481L88.1547 49.1132Z" stroke="#FF5467" stroke-width="2.72982"/>
</g>
<g filter="url(#filter3_f_142_300)">
<path d="M87.7835 49.4844L129.198 90.8994L134.207 85.8906L89.694 41.3775C89.694 41.3775 89.694 41.3774 89.6939 41.3774C89.0296 40.7134 88.1288 40.3403 87.1896 40.3403C86.2503 40.3403 85.3494 40.7134 84.6851 41.3775L65.8719 60.1907L65.278 60.7846L64.6841 60.1907L27.0575 22.5641L25.6236 21.1303H27.6515H55.6734V14.0455H13.5302V56.1888H20.6149V28.1668V26.139L22.0488 27.5729L62.7735 68.2976C62.7736 68.2976 62.7736 68.2977 62.7736 68.2977C63.4379 68.9617 64.3387 69.3348 65.278 69.3348C66.2173 69.3348 67.1181 68.9617 67.7824 68.2977C67.7824 68.2977 67.7824 68.2976 67.7825 68.2976L86.5956 49.4844L87.1896 48.8905L87.7835 49.4844Z" stroke="#FF5467" stroke-width="1.67989"/>
</g>
<g filter="url(#filter4_f_142_300)">
<path d="M87.4865 49.7814L129.198 91.4933L134.801 85.8906L89.9909 41.0805C89.9909 41.0805 89.9909 41.0804 89.9909 41.0804C89.2479 40.3376 88.2402 39.9204 87.1896 39.9204C86.1389 39.9204 85.1313 40.3376 84.3882 41.0804C84.3882 41.0804 84.3882 41.0805 84.3882 41.0805L65.575 59.8937L65.278 60.1907L64.981 59.8937L27.3545 22.2672L26.6376 21.5502H27.6515H56.0934V13.6255H13.1102V56.6087H21.0349V28.1668V27.1529L21.7518 27.8698L62.4766 68.5946C62.4766 68.5946 62.4767 68.5946 62.4767 68.5947C63.2197 69.3375 64.2273 69.7547 65.278 69.7547C66.3287 69.7547 67.3363 69.3375 68.0793 68.5947C68.0793 68.5946 68.0794 68.5946 68.0794 68.5946L86.8926 49.7814L87.1896 49.4844L87.4865 49.7814Z" stroke="white" stroke-width="0.839943"/>
</g>
<defs>
<filter id="filter0_f_142_300" x="0.0910349" y="0.606416" width="147.903" height="104.08" filterUnits="userSpaceOnUse" color-interpolation-filters="sRGB">
<feFlood flood-opacity="0" result="BackgroundImageFix"/>
<feBlend mode="normal" in="SourceGraphic" in2="BackgroundImageFix" result="shape"/>
<feGaussianBlur stdDeviation="6.29958" result="effect1_foregroundBlur_142_300"/>
</filter>
<filter id="filter1_f_142_300" x="4.3286" y="9.00585" width="131.104" height="87.2813" filterUnits="userSpaceOnUse" color-interpolation-filters="sRGB">
<feFlood flood-opacity="0" result="BackgroundImageFix"/>
<feBlend mode="normal" in="SourceGraphic" in2="BackgroundImageFix" result="shape"/>
<feGaussianBlur stdDeviation="2.09986" result="effect1_foregroundBlur_142_300"/>
</filter>
<filter id="filter2_d_142_300" x="10.5903" y="13.2056" width="126.905" height="83.7115" filterUnits="userSpaceOnUse" color-interpolation-filters="sRGB">
<feFlood flood-opacity="0" result="BackgroundImageFix"/>
<feColorMatrix in="SourceAlpha" type="matrix" values="0 0 0 0 0 0 0 0 0 0 0 0 0 0 0 0 0 0 127 0" result="hardAlpha"/>
<feOffset dy="2.72982"/>
<feGaussianBlur stdDeviation="1.04993"/>
<feColorMatrix type="matrix" values="0 0 0 0 0.224 0 0 0 0 0.15 0 0 0 0 0 0 0 0 0.7 0"/>
<feBlend mode="multiply" in2="BackgroundImageFix" result="effect1_dropShadow_142_300"/>
<feBlend mode="normal" in="SourceGraphic" in2="effect1_dropShadow_142_300" result="shape"/>
</filter>
<filter id="filter3_f_142_300" x="12.2702" y="12.7856" width="123.545" height="79.7218" filterUnits="userSpaceOnUse" color-interpolation-filters="sRGB">
<feFlood flood-opacity="0" result="BackgroundImageFix"/>
<feBlend mode="normal" in="SourceGraphic" in2="BackgroundImageFix" result="shape"/>
<feGaussianBlur stdDeviation="0.209986" result="effect1_foregroundBlur_142_300"/>
</filter>
<filter id="filter4_f_142_300" x="12.4102" y="12.9256" width="123.265" height="79.4418" filterUnits="userSpaceOnUse" color-interpolation-filters="sRGB">
<feFlood flood-opacity="0" result="BackgroundImageFix"/>
<feBlend mode="normal" in="SourceGraphic" in2="BackgroundImageFix" result="shape"/>
<feGaussianBlur stdDeviation="0.139991" result="effect1_foregroundBlur_142_300"/>
</filter>
</defs>
</svg>
