<svg width="184" height="192" viewBox="0 0 184 192" fill="none" xmlns="http://www.w3.org/2000/svg">
<g style="mix-blend-mode:hard-light" filter="url(#filter0_f_142_286)">
<ellipse cx="91.6938" cy="96.0435" rx="63.0841" ry="73.6064" transform="rotate(-30.4069 91.6938 96.0435)" fill="#FF5862" fill-opacity="0.19"/>
</g>
<g style="mix-blend-mode:hard-light" filter="url(#filter1_f_142_286)">
<path d="M100.327 62.7795C86.1294 51.749 70.0611 48.9837 65.4466 48.4004L63.9014 48.2051L63.3162 49.6486C61.5643 53.97 56.1431 69.3469 58.8499 87.1206L58.85 87.1213C61.9436 107.386 74.2748 123.804 95.146 135.967L96.1691 136.563L97.1904 135.963L124.281 120.065L125.303 119.466L125.281 118.282C124.841 94.1292 116.521 75.3572 100.327 62.7795ZM100.327 62.7795L99.0844 64.3785M100.327 62.7795L99.0844 64.3785M99.0844 64.3785C85.3063 53.6736 69.6609 50.9741 65.1927 50.4093L123.257 118.319C122.825 94.6438 114.698 76.505 99.0844 64.3785ZM154.899 116.743L154.899 116.743C155.251 117.833 155.321 118.994 155.102 120.118C154.883 121.242 154.383 122.292 153.647 123.17C152.912 124.048 151.966 124.725 150.898 125.138C149.83 125.551 148.675 125.687 147.54 125.532L147.521 125.529L147.501 125.527L128.863 123.353L128.189 123.275L127.603 123.618L98.6822 140.591L98.0972 140.934L97.8371 141.561L90.6361 158.898L90.6283 158.917L90.621 158.935C90.2029 160.001 89.5213 160.944 88.6398 161.675C87.7584 162.406 86.706 162.902 85.5809 163.115C84.4559 163.329 83.2951 163.254 82.207 162.897C81.1189 162.54 80.1392 161.913 79.3593 161.074L79.3591 161.074L58.0239 138.142C58.0233 138.141 58.0228 138.14 58.0222 138.14C57.3192 137.38 56.7984 136.47 56.4993 135.479C56.2003 134.488 56.1307 133.443 56.2955 132.421C56.2958 132.42 56.296 132.419 56.2962 132.417L60.3033 108.235L60.4092 107.596L60.1248 107.014C57.1673 100.965 55.1584 94.4962 54.1687 87.8357L54.1676 87.8284C51.3627 69.4131 56.534 53.7581 58.9016 47.8915L58.9036 47.8864C59.4617 46.4926 60.4673 45.3238 61.7623 44.5638C63.0572 43.8039 64.568 43.4959 66.057 43.6884L66.0593 43.6887C72.3259 44.4912 88.5288 47.6029 103.237 59.0313L103.243 59.0358C108.576 63.1479 113.243 68.0561 117.083 73.5881L117.452 74.12L118.061 74.3391L141.127 82.6333C141.128 82.6337 141.129 82.634 141.13 82.6344C142.103 82.9885 142.982 83.5593 143.701 84.3036C144.42 85.0479 144.961 85.9462 145.282 86.9303C145.282 86.9312 145.282 86.9322 145.282 86.9331L154.899 116.743ZM92.5513 141.941L93.2243 140.322L91.7174 139.425C81.3528 133.253 73.1127 126.117 66.9469 118.038L64.1042 114.313L63.3395 118.936L60.9805 133.196L60.8182 134.177L61.4957 134.905L82.837 157.846L84.9331 160.099L86.1728 157.282L86.222 157.171L86.2305 157.151L86.2385 157.132L92.5513 141.941ZM140.764 88.386L140.458 87.4393L139.522 87.1024L125.923 82.2081L121.509 80.6196L123.38 84.9211C127.425 94.2191 129.643 104.889 129.991 116.966L130.041 118.716L131.781 118.919L148.097 120.817L148.118 120.819L148.139 120.821L148.261 120.833L151.324 121.124L150.379 118.195L140.764 88.386ZM130.473 139.58C130.792 140.122 130.881 140.769 130.723 141.379C130.564 141.988 130.17 142.509 129.628 142.827L114.456 151.731C113.913 152.049 113.266 152.139 112.657 151.981C112.048 151.822 111.527 151.428 111.208 150.885C110.89 150.343 110.8 149.695 110.958 149.086C111.117 148.477 111.511 147.956 112.054 147.638L127.225 138.734C127.768 138.416 128.415 138.326 129.024 138.484C129.633 138.643 130.155 139.037 130.473 139.58ZM90.4536 88.435C90.0594 89.2488 89.4328 89.9275 88.6529 90.3852C87.6072 90.9989 86.3604 91.172 85.187 90.8665C84.0136 90.561 83.0096 89.8019 82.3958 88.7561C81.9382 87.9763 81.722 87.0782 81.7748 86.1755C81.8275 85.2728 82.1467 84.406 82.6921 83.6847C83.2374 82.9635 83.9844 82.4201 84.8386 82.1234C85.6928 81.8266 86.6157 81.7899 87.4908 82.0177C88.3659 82.2455 89.1537 82.7277 89.7548 83.4033C90.3558 84.0789 90.743 84.9175 90.8674 85.8132C90.9917 86.7088 90.8478 87.6212 90.4536 88.435Z" stroke="#FF5862" stroke-width="4.04969"/>
</g>
<g style="mix-blend-mode:hard-light" filter="url(#filter2_ddi_142_286)">
<path d="M151.635 110.262L151.635 110.262C152.012 111.428 152.086 112.671 151.852 113.874C151.618 115.077 151.082 116.201 150.295 117.141C149.508 118.081 148.496 118.806 147.353 119.248C146.209 119.69 144.973 119.835 143.758 119.669L143.743 119.667L143.728 119.665L125.09 117.492L124.574 117.432L124.127 117.694L95.2058 134.667L94.7585 134.93L94.5596 135.409L87.3585 152.746L87.3526 152.76L87.347 152.775C86.8995 153.916 86.1699 154.925 85.2264 155.707C84.283 156.49 83.1565 157.02 81.9523 157.249L82.2413 158.77L81.9523 157.249C80.7481 157.477 79.5056 157.397 78.341 157.015C77.1763 156.633 76.1276 155.962 75.2929 155.064L75.2927 155.064L53.9567 132.131C53.9564 132.13 53.956 132.13 53.9557 132.129C53.2032 131.316 52.6458 130.342 52.3256 129.282C52.0057 128.222 51.9312 127.103 52.1078 126.01C52.108 126.009 52.1082 126.007 52.1084 126.006L56.1158 101.822L56.1967 101.334L55.9793 100.889C53.0003 94.7955 50.9768 88.2799 49.9799 81.571L49.9791 81.5654C47.1559 63.0309 52.3591 47.2836 54.7422 41.3785L54.7438 41.3746C55.3412 39.8827 56.4175 38.6316 57.8036 37.8182C59.1896 37.0048 60.8067 36.6752 62.4005 36.8811L62.4023 36.8814C68.709 37.689 85.0082 40.8178 99.8122 52.3203L99.8167 52.3238C105.188 56.4657 109.889 61.4096 113.756 66.9818L114.039 67.3885L114.505 67.556L137.573 75.8508C137.574 75.8513 137.575 75.8517 137.576 75.8521C138.616 76.231 139.557 76.8417 140.326 77.6378C141.096 78.4344 141.674 79.3957 142.017 80.449C142.018 80.4497 142.018 80.4503 142.018 80.451L151.635 110.262ZM91.6684 129.22L92.4508 129.676L93.2317 129.218L120.323 113.319L121.104 112.861L121.087 111.956C120.649 87.9156 112.374 69.2924 96.3167 56.8209C82.2181 45.8671 66.2494 43.1173 61.6694 42.5384L60.4877 42.389L60.0402 43.4928C58.3017 47.7814 52.9154 63.0639 55.6034 80.7141L55.6035 80.7147C58.671 100.809 70.8943 117.114 91.6684 129.22ZM88.3938 135.424L88.9085 134.185L87.7561 133.499C77.3482 127.302 69.0591 120.128 62.8506 111.992L60.6768 109.143L60.092 112.679L57.7331 126.939L57.6089 127.689L58.127 128.246L79.4683 151.187L81.0712 152.91L82.0192 150.756L82.0684 150.644L82.0749 150.629L82.0811 150.615L88.3938 135.424ZM136.593 82.1976L136.359 81.4736L135.644 81.216L122.044 76.3216L118.669 75.1069L120.1 78.3963C124.173 87.7591 126.4 98.4905 126.75 110.617L126.788 111.956L128.118 112.111L144.434 114.009L144.451 114.011L144.467 114.012L144.588 114.024L146.931 114.247L146.209 112.007L136.593 82.1976ZM127.166 133.004C127.549 133.656 127.657 134.433 127.466 135.164C127.276 135.895 126.803 136.521 126.151 136.903L110.979 145.807C110.328 146.19 109.551 146.298 108.819 146.107C108.088 145.917 107.462 145.444 107.08 144.792C106.697 144.14 106.589 143.363 106.78 142.632C106.97 141.9 107.443 141.275 108.095 140.892L123.267 131.988C123.918 131.606 124.696 131.498 125.427 131.688C126.158 131.879 126.784 132.352 127.166 133.004ZM87.1649 82.308C86.7296 83.2066 86.0377 83.956 85.1765 84.4613C84.0218 85.139 82.6451 85.3302 81.3494 84.9929C80.0537 84.6555 78.9451 83.8173 78.2674 82.6625C77.762 81.8014 77.5234 80.8098 77.5816 79.813C77.6398 78.8162 77.9923 77.8591 78.5945 77.0627C79.1967 76.2662 80.0215 75.6663 80.9647 75.3386C81.9079 75.0109 82.9271 74.9703 83.8933 75.2219C84.8596 75.4735 85.7295 76.0059 86.3932 76.7519C87.0568 77.4979 87.4844 78.4239 87.6217 79.4129C87.7591 80.4019 87.6001 81.4094 87.1649 82.308Z" stroke="#FF5664" stroke-width="3.09682"/>
</g>
<g filter="url(#filter3_f_142_286)">
<path d="M152.202 110.079L152.202 110.079C152.61 111.341 152.69 112.686 152.437 113.988C152.183 115.29 151.603 116.506 150.752 117.523C149.9 118.54 148.805 119.325 147.567 119.803C146.33 120.282 144.992 120.439 143.678 120.259L143.669 120.258L143.659 120.257L125.021 118.083L124.704 118.046L124.428 118.208L95.5072 135.181L95.232 135.342L95.1095 135.637L87.9085 152.974L87.9049 152.983L87.9014 152.992C87.4172 154.227 86.6276 155.319 85.6066 156.166C84.5856 157.012 83.3666 157.586 82.0634 157.834C80.7603 158.081 79.4157 157.994 78.1554 157.581C76.895 157.167 75.7601 156.441 74.8568 155.47L74.8567 155.47L53.5197 132.535C53.5194 132.535 53.5191 132.535 53.5188 132.534C52.7048 131.655 52.1018 130.601 51.7555 129.454C51.4093 128.307 51.3288 127.096 51.5202 125.913C51.5203 125.912 51.5204 125.912 51.5205 125.911L55.5282 101.725L55.578 101.424L55.4442 101.15C52.4384 95.0021 50.3967 88.4279 49.3908 81.6585L49.3903 81.6551C46.5445 62.9715 51.7874 47.1088 54.19 41.1556L54.1909 41.1532C54.8374 39.5387 56.0022 38.1848 57.5022 37.3046C59.0021 36.4243 60.7521 36.0676 62.4769 36.2905L62.478 36.2907C68.8348 37.1047 85.2542 40.2548 100.178 51.8501L100.18 51.8522C105.6 56.0315 110.344 61.0199 114.246 66.6422L114.419 66.8925L114.706 66.9956L137.776 75.2911C137.777 75.2913 137.777 75.2915 137.778 75.2917C138.904 75.7015 139.922 76.3623 140.755 77.224C141.587 78.0858 142.213 79.126 142.584 80.2656C142.584 80.266 142.584 80.2664 142.584 80.2668L152.202 110.079ZM91.9682 128.706L92.4497 128.986L92.9303 128.704L120.021 112.806L120.502 112.524L120.492 111.966C120.056 88.067 111.838 69.6301 95.9515 57.2913C81.9761 46.4332 66.1317 43.7027 61.5947 43.1292L60.8675 43.0373L60.5921 43.7166C58.8702 47.9641 53.5276 63.1285 56.1921 80.6245L56.1922 80.6248C59.2271 100.505 71.3155 116.671 91.9682 128.706ZM87.8439 135.195L88.1606 134.433L87.4515 134.011C76.9893 127.781 68.6391 120.559 62.3771 112.353L61.0394 110.6L60.6796 112.776L58.3206 127.036L58.2442 127.498L58.563 127.84L79.9044 150.781L80.8908 151.841L81.4742 150.516L81.5233 150.404L81.5273 150.395L81.5311 150.386L87.8439 135.195ZM136.026 82.3804L135.882 81.9349L135.442 81.7764L121.842 76.882L119.765 76.1345L120.646 78.1587C124.754 87.6023 126.994 98.4107 127.345 110.6L127.369 111.424L128.187 111.519L144.503 113.417L144.513 113.418L144.523 113.419L144.645 113.431L146.086 113.568L145.642 112.19L136.026 82.3804ZM127.68 132.702C128.142 133.49 128.273 134.43 128.043 135.314C127.813 136.198 127.241 136.955 126.453 137.417L111.281 146.321C110.493 146.783 109.553 146.914 108.669 146.683C107.785 146.453 107.029 145.881 106.566 145.093C106.104 144.305 105.973 143.366 106.203 142.482C106.434 141.597 107.006 140.841 107.794 140.378L122.965 131.475C123.753 131.012 124.693 130.882 125.577 131.112C126.461 131.342 127.218 131.914 127.68 132.702ZM87.7008 82.5676C87.2142 83.5722 86.4407 84.41 85.478 84.975C84.187 85.7326 82.6479 85.9463 81.1994 85.5692C79.7508 85.1921 78.5114 84.2549 77.7538 82.964C77.1888 82.0013 76.922 80.8926 76.9871 79.7783C77.0522 78.6639 77.4463 77.5939 78.1195 76.7035C78.7927 75.8131 79.7148 75.1423 80.7693 74.776C81.8237 74.4097 82.9631 74.3643 84.0434 74.6456C85.1236 74.9268 86.0962 75.5221 86.8381 76.3561C87.5801 77.1901 88.058 78.2253 88.2116 79.331C88.3652 80.4366 88.1874 81.563 87.7008 82.5676Z" stroke="#FF5566" stroke-width="1.90574"/>
</g>
<g filter="url(#filter4_f_142_286)">
<path d="M152.655 109.932L152.655 109.933C153.088 111.271 153.173 112.698 152.904 114.079C152.635 115.46 152.02 116.751 151.117 117.829C150.214 118.908 149.052 119.74 147.739 120.248C146.427 120.755 145.007 120.921 143.613 120.731L143.613 120.731L143.604 120.73L124.966 118.557L124.807 118.538L124.669 118.619L95.7484 135.592L95.6107 135.672L95.5495 135.82L88.3485 153.157L88.3484 153.157L88.345 153.166C87.8313 154.476 86.9938 155.634 85.9108 156.532C84.8278 157.43 83.5346 158.039 82.1523 158.302C80.7701 158.564 79.3438 158.472 78.0068 158.033C76.6699 157.595 75.4661 156.824 74.5079 155.794L74.5079 155.794L53.1701 132.859C53.17 132.859 53.17 132.859 53.1699 132.859C52.3064 131.926 51.6667 130.809 51.2994 129.592C50.9322 128.375 50.8469 127.09 51.05 125.836C51.0501 125.836 51.0502 125.835 51.0502 125.835L55.0582 101.647L55.0831 101.497L55.0162 101.36C51.9889 95.1675 49.9327 88.5463 48.9196 81.7285L48.9193 81.7268C46.0553 62.9239 51.3301 46.969 53.7481 40.9773L53.7486 40.9761C54.4344 39.2635 55.67 37.8274 57.261 36.8937C58.8521 35.96 60.7084 35.5816 62.5379 35.818L62.5385 35.8181C68.9355 36.6373 85.4511 39.8044 100.47 51.4738L100.471 51.4749C105.929 55.684 110.707 60.7081 114.637 66.3706L114.724 66.4957L114.867 66.5473L137.939 74.8434C137.939 74.8435 137.939 74.8436 137.94 74.8437C139.134 75.2781 140.214 75.9789 141.097 76.8929C141.981 77.807 142.644 78.9103 143.037 80.1191C143.037 80.1192 143.037 80.1193 143.037 80.1194L152.655 109.932ZM92.2081 128.294L92.4488 128.434L92.6891 128.293L119.78 112.395L120.02 112.254L120.015 111.975C119.582 88.188 111.409 69.9002 95.6591 57.6675C81.7824 46.8861 66.0375 44.171 61.5349 43.6019L61.1713 43.5559L61.0336 43.8956C59.325 48.1103 54.0175 63.1802 56.6631 80.5527L56.6632 80.5529C59.672 100.263 71.6525 116.316 92.2081 128.294ZM87.4039 135.012L87.5623 134.631L87.2077 134.42C76.7022 128.165 68.303 120.904 61.9984 112.642L61.3295 111.766L61.1496 112.854L58.7907 127.114L58.7525 127.344L58.9119 127.516L80.2532 150.457L80.7464 150.987L81.0381 150.324L81.0873 150.212L81.0874 150.212L81.0912 150.203L87.4039 135.012ZM135.573 82.5267L135.501 82.3039L135.281 82.2247L121.681 77.3303L120.642 76.9565L121.083 77.9686C125.219 87.477 127.469 98.3469 127.821 110.586L127.833 110.998L128.242 111.046L144.558 112.944L144.558 112.944L144.568 112.945L144.69 112.957L145.411 113.025L145.188 112.336L135.573 82.5267ZM128.091 132.461C128.617 133.358 128.766 134.427 128.504 135.434C128.242 136.44 127.591 137.302 126.694 137.828L111.522 146.732C110.625 147.258 109.556 147.407 108.549 147.145C107.543 146.882 106.682 146.231 106.155 145.334C105.629 144.437 105.48 143.368 105.742 142.362C106.004 141.355 106.655 140.494 107.552 139.968L122.724 131.064C123.621 130.538 124.69 130.389 125.697 130.651C126.703 130.913 127.565 131.564 128.091 132.461ZM88.1296 82.7753C87.602 83.8647 86.7631 84.7732 85.7191 85.3859C84.3192 86.2074 82.6502 86.4392 81.0793 86.0303C79.5085 85.6213 78.1645 84.6051 77.3429 83.2051C76.7302 82.1611 76.4409 80.9589 76.5115 79.7505C76.5821 78.5421 77.0094 77.3817 77.7395 76.4161C78.4695 75.4506 79.4695 74.7232 80.6129 74.326C81.7564 73.9288 82.992 73.8795 84.1634 74.1845C85.3348 74.4895 86.3895 75.135 87.1941 76.0394C87.9987 76.9438 88.517 78.0665 88.6835 79.2654C88.85 80.4644 88.6573 81.6859 88.1296 82.7753Z" stroke="white" stroke-width="0.952869"/>
</g>
<defs>
<filter id="filter0_f_142_286" x="11.5092" y="10.73" width="160.369" height="170.627" filterUnits="userSpaceOnUse" color-interpolation-filters="sRGB">
<feFlood flood-opacity="0" result="BackgroundImageFix"/>
<feBlend mode="normal" in="SourceGraphic" in2="BackgroundImageFix" result="shape"/>
<feGaussianBlur stdDeviation="7.1193" result="effect1_foregroundBlur_142_286"/>
</filter>
<filter id="filter1_f_142_286" x="46.566" y="36.8433" width="115.45" height="133.18" filterUnits="userSpaceOnUse" color-interpolation-filters="sRGB">
<feFlood flood-opacity="0" result="BackgroundImageFix"/>
<feBlend mode="normal" in="SourceGraphic" in2="BackgroundImageFix" result="shape"/>
<feGaussianBlur stdDeviation="2.38217" result="effect1_foregroundBlur_142_286"/>
</filter>
<filter id="filter2_ddi_142_286" x="41.4191" y="33.8436" width="118.309" height="136.039" filterUnits="userSpaceOnUse" color-interpolation-filters="sRGB">
<feFlood flood-opacity="0" result="BackgroundImageFix"/>
<feColorMatrix in="SourceAlpha" type="matrix" values="0 0 0 0 0 0 0 0 0 0 0 0 0 0 0 0 0 0 127 0" result="hardAlpha"/>
<feOffset dy="3.09682"/>
<feGaussianBlur stdDeviation="1.19109"/>
<feColorMatrix type="matrix" values="0 0 0 0 0.224 0 0 0 0 0.15 0 0 0 0 0 0 0 0 0.7 0"/>
<feBlend mode="multiply" in2="BackgroundImageFix" result="effect1_dropShadow_142_286"/>
<feColorMatrix in="SourceAlpha" type="matrix" values="0 0 0 0 0 0 0 0 0 0 0 0 0 0 0 0 0 0 127 0" result="hardAlpha"/>
<feOffset dy="4.76435"/>
<feGaussianBlur stdDeviation="3.09682"/>
<feColorMatrix type="matrix" values="0 0 0 0 0.56 0 0 0 0 0.44 0 0 0 0 0 0 0 0 1 0"/>
<feBlend mode="color-dodge" in2="effect1_dropShadow_142_286" result="effect2_dropShadow_142_286"/>
<feBlend mode="normal" in="SourceGraphic" in2="effect2_dropShadow_142_286" result="shape"/>
<feColorMatrix in="SourceAlpha" type="matrix" values="0 0 0 0 0 0 0 0 0 0 0 0 0 0 0 0 0 0 127 0" result="hardAlpha"/>
<feOffset dx="-0.309682" dy="0.619365"/>
<feGaussianBlur stdDeviation="0.154841"/>
<feComposite in2="hardAlpha" operator="arithmetic" k2="-1" k3="1"/>
<feColorMatrix type="matrix" values="0 0 0 0 1 0 0 0 0 1 0 0 0 0 1 0 0 0 0.5 0"/>
<feBlend mode="normal" in2="shape" result="effect3_innerShadow_142_286"/>
</filter>
<filter id="filter3_f_142_286" x="47.1364" y="34.7965" width="106.874" height="124.604" filterUnits="userSpaceOnUse" color-interpolation-filters="sRGB">
<feFlood flood-opacity="0" result="BackgroundImageFix"/>
<feBlend mode="normal" in="SourceGraphic" in2="BackgroundImageFix" result="shape"/>
<feGaussianBlur stdDeviation="0.238217" result="effect1_foregroundBlur_142_286"/>
</filter>
<filter id="filter4_f_142_286" x="47.2952" y="34.9553" width="106.557" height="124.287" filterUnits="userSpaceOnUse" color-interpolation-filters="sRGB">
<feFlood flood-opacity="0" result="BackgroundImageFix"/>
<feBlend mode="normal" in="SourceGraphic" in2="BackgroundImageFix" result="shape"/>
<feGaussianBlur stdDeviation="0.158812" result="effect1_foregroundBlur_142_286"/>
</filter>
</defs>
</svg>
